<?xml version="1.0" standalone="no"?>
<!DOCTYPE svg PUBLIC "-//W3C//DTD SVG 20010904//EN"
 "http://www.w3.org/TR/2001/REC-SVG-20010904/DTD/svg10.dtd">
<svg version="1.0" xmlns="http://www.w3.org/2000/svg"
 width="500.000000pt" height="500.000000pt" viewBox="0 0 500.000000 500.000000"
 preserveAspectRatio="xMidYMid meet">
<metadata>
Created by potrace 1.11, written by Peter Selinger 2001-2013
</metadata>
<g transform="translate(0.000000,500.000000) scale(0.100000,-0.100000)"
fill="#000000" stroke="none">
<path d="M2870 4792 c-14 -8 -69 -44 -122 -79 -53 -34 -101 -63 -107 -63 -5 0
-11 -4 -13 -8 -1 -5 -46 -37 -98 -72 -52 -34 -105 -72 -117 -83 -13 -11 -23
-18 -23 -14 0 3 -10 -3 -22 -14 -45 -37 -193 -147 -196 -145 -1 2 5 23 14 47
33 92 42 166 22 174 -17 7 -63 -9 -82 -28 -8 -6 -35 -30 -61 -52 -44 -36 -175
-168 -286 -286 -51 -55 -75 -81 -149 -169 -30 -35 -61 -71 -68 -79 -22 -23
-186 -242 -217 -288 -24 -38 -48 -57 -43 -35 1 4 -4 21 -11 37 -7 17 -14 35
-15 40 -15 68 -18 73 -37 68 -10 -3 -19 -8 -20 -12 0 -3 -2 -13 -4 -21 -2 -8
-6 -26 -8 -40 -3 -14 -17 -74 -31 -135 -14 -60 -28 -126 -31 -145 -3 -20 -8
-47 -10 -60 -3 -14 -10 -57 -16 -97 -5 -39 -11 -80 -13 -90 -4 -20 -86 -146
-98 -151 -5 -2 -8 -10 -8 -19 0 -12 -142 -159 -194 -201 -15 -12 -15 -15 1
-43 10 -17 42 -56 71 -87 28 -31 52 -57 52 -59 0 -2 -16 -3 -35 -3 -202 0
-396 -162 -450 -375 -53 -210 59 -552 210 -645 20 -12 57 -28 83 -34 56 -15
187 -13 237 4 20 7 37 10 39 8 1 -1 12 -39 25 -82 32 -115 92 -233 147 -291
26 -27 63 -70 82 -95 52 -68 132 -151 177 -184 22 -17 42 -32 45 -36 5 -5 78
-54 220 -146 71 -46 262 -145 305 -157 87 -26 517 -43 630 -24 83 13 462 132
554 174 l55 24 28 -30 c33 -36 34 -41 7 -41 -59 0 -244 -139 -186 -140 6 -1 2
-6 -9 -13 -47 -26 -95 -78 -98 -105 -2 -15 5 -51 16 -79 22 -61 38 -68 126
-60 53 6 97 13 97 17 0 1 7 3 15 5 112 22 262 74 291 101 30 27 59 24 138 -16
74 -37 139 -54 158 -41 40 27 49 102 19 159 -16 29 -80 94 -110 109 -15 9 -12
11 23 17 22 3 70 22 106 42 36 20 65 33 65 29 0 -4 6 -3 13 2 6 6 48 30 92 53
70 38 140 83 155 101 13 15 98 67 120 74 45 14 115 49 135 68 26 24 85 55 118
61 30 5 110 50 127 71 6 8 27 19 45 25 24 8 35 19 39 38 8 37 18 93 21 117 2
11 8 38 13 60 6 22 14 54 16 70 3 17 8 39 10 50 2 11 7 46 11 79 7 57 10 77
20 126 11 51 16 92 19 141 4 60 -13 75 -59 54 -17 -8 -70 -27 -120 -43 -77
-26 -102 -29 -175 -26 -112 5 -154 6 -160 4 -21 -7 -54 -10 -107 -11 -68 0
-86 -11 -117 -69 -10 -20 -35 -54 -55 -77 -20 -22 -43 -50 -51 -63 -46 -67
-103 -140 -111 -140 -5 0 -9 -5 -9 -11 0 -9 -37 -63 -71 -102 -10 -13 96 200
108 215 5 7 11 40 12 73 1 33 4 78 7 101 3 22 1 67 -6 100 -27 142 -36 264
-19 264 8 0 6 5 -5 13 -17 13 -18 27 -13 188 3 96 8 185 11 198 5 24 14 35 74
100 17 19 32 39 32 44 0 14 82 116 155 192 87 91 111 128 128 195 15 58 15
126 -1 142 -5 5 -24 -5 -48 -26 -21 -20 -42 -36 -45 -36 -3 0 -38 -18 -78 -39
-39 -22 -71 -38 -71 -36 0 2 12 41 27 87 14 46 28 88 29 93 2 6 17 55 34 110
35 108 77 263 95 348 31 144 36 201 20 223 -12 17 -15 17 -51 -8 -22 -14 -55
-39 -74 -57 -19 -17 -39 -31 -43 -31 -5 0 -5 -4 -2 -10 3 -5 1 -10 -5 -10 -6
0 -23 -11 -38 -25 -33 -32 -225 -162 -228 -155 -1 3 -10 -2 -20 -11 -16 -13
-37 -25 -64 -34 -3 -1 -13 -5 -23 -10 -10 -4 -20 -6 -22 -4 -5 5 68 150 96
191 12 18 33 44 45 58 37 40 41 82 11 113 -13 15 -27 24 -30 20 -4 -3 -7 -1
-7 5 0 6 -13 13 -30 17 -16 4 -30 11 -30 16 0 6 -4 8 -9 4 -8 -4 -110 69 -131
95 -11 12 -88 70 -95 70 -9 0 -99 62 -103 72 -2 4 -10 8 -17 8 -7 0 -15 4 -17
8 -1 4 -18 18 -36 31 l-34 24 7 136 c3 75 7 148 9 162 5 44 -10 70 -39 65 -13
-3 -29 -7 -35 -11 -5 -3 -18 -8 -27 -10 -10 -1 -47 -10 -82 -20 -35 -9 -70
-14 -77 -11 -7 3 -15 2 -18 -2 -6 -10 -133 -8 -143 2 -5 4 -9 47 -10 94 -2
128 -2 126 -21 138 -13 9 -23 8 -42 -4z m-715 -362 c3 -5 1 -10 -4 -10 -6 0
-11 5 -11 10 0 6 2 10 4 10 3 0 8 -4 11 -10z m-378 -1752 c-3 -8 -6 -5 -6 6
-1 11 2 17 5 13 3 -3 4 -12 1 -19z m-214 -305 c-4 -10 -15 -31 -25 -48 -13
-21 -18 -25 -18 -12 0 10 10 31 22 47 25 34 30 37 21 13z m-342 -356 c-10 -9
-11 -8 -5 6 3 10 9 15 12 12 3 -3 0 -11 -7 -18z m2229 -1193 c0 -8 -5 -12 -10
-9 -6 4 -8 11 -5 16 9 14 15 11 15 -7z"/>
</g>
</svg>
